<?xml version="1.0" encoding="UTF-8" standalone="no"?>
<svg
   width="40"
   height="40"
   fill="none"
   version="1.1"
   id="svg17"
   sodipodi:docname="logo-main.svg"
   inkscape:version="1.4.2 (2aeb623e1d, 2025-05-12)"
   xmlns:inkscape="http://www.inkscape.org/namespaces/inkscape"
   xmlns:sodipodi="http://sodipodi.sourceforge.net/DTD/sodipodi-0.dtd"
   xmlns="http://www.w3.org/2000/svg"
   xmlns:svg="http://www.w3.org/2000/svg">
  <sodipodi:namedview
     id="namedview17"
     pagecolor="#ffffff"
     bordercolor="#000000"
     borderopacity="0.25"
     inkscape:showpageshadow="2"
     inkscape:pageopacity="0.0"
     inkscape:pagecheckerboard="0"
     inkscape:deskcolor="#d1d1d1"
     inkscape:zoom="15.17094"
     inkscape:cx="19.214366"
     inkscape:cy="24.256901"
     inkscape:window-width="1920"
     inkscape:window-height="1008"
     inkscape:window-x="1920"
     inkscape:window-y="0"
     inkscape:window-maximized="1"
     inkscape:current-layer="svg17" />
  <g
     filter="url(#filter0_dd_1894_485083)"
     id="g5">
    <mask
       id="a"
       width="32"
       height="32"
       x="4"
       y="3"
       maskUnits="userSpaceOnUse">
      <path
         fill="#ffffff"
         d="M 28,3 H 12 a 8,8 0 0 0 -8,8 v 16 a 8,8 0 0 0 8,8 h 16 a 8,8 0 0 0 8,-8 V 11 A 8,8 0 0 0 28,3 Z"
         id="path1" />
    </mask>
    <g
       mask="url(#a)"
       id="g4">
      <path
         fill="#16348c"
         d="M 28,3 H 12 a 8,8 0 0 0 -8,8 v 16 a 8,8 0 0 0 8,8 h 16 a 8,8 0 0 0 8,-8 V 11 A 8,8 0 0 0 28,3 Z"
         id="path2" />
      <path
         fill="url(#paint0_linear_1894_485083)"
         d="M 4,3 H 36 V 35 H 4 Z"
         id="path3"
         style="fill:url(#paint0_linear_1894_485083)" />
      <path
         fill="url(#paint1_linear_1894_485083)"
         d="M 17.625,9.5 A 7.125,7.125 0 0 1 10.5,16.625 v 4.75 h 7.125 V 28.5 h 4.75 A 7.125,7.125 0 0 1 29.5,21.375 v -4.75 H 22.375 V 9.5 Z"
         id="path4"
         style="fill:url(#paint1_linear_1894_485083)" />
    </g>
    <path
       stroke="url(#paint2_linear_1894_485083)"
       stroke-width="2"
       d="M 28,3.667 H 12 A 7.333,7.333 0 0 0 4.667,11 V 27 A 7.333,7.333 0 0 0 12,34.333 H 28 A 7.333,7.333 0 0 0 35.333,27 V 11 A 7.333,7.333 0 0 0 28,3.667 Z"
       id="path5"
       style="stroke:url(#paint2_linear_1894_485083)" />
  </g>
  <defs
     id="defs17">
    <linearGradient
       id="paint0_linear_1894_485083"
       x1="20"
       x2="21.333"
       y1="3"
       y2="35"
       gradientUnits="userSpaceOnUse">
      <stop
         stop-color="#fff"
         stop-opacity="0"
         id="stop8" />
      <stop
         offset="1"
         stop-color="#fff"
         stop-opacity=".12"
         id="stop9" />
    </linearGradient>
    <linearGradient
       id="paint1_linear_1894_485083"
       x1="20"
       x2="20"
       y1="9.5"
       y2="28.5"
       gradientUnits="userSpaceOnUse">
      <stop
         stop-color="#fff"
         stop-opacity=".8"
         id="stop10" />
      <stop
         offset="1"
         stop-color="#fff"
         stop-opacity=".5"
         id="stop11" />
    </linearGradient>
    <linearGradient
       id="paint2_linear_1894_485083"
       x1="20"
       x2="20"
       y1="3"
       y2="35"
       gradientUnits="userSpaceOnUse">
      <stop
         stop-color="#fff"
         stop-opacity=".12"
         id="stop12" />
      <stop
         offset="1"
         stop-color="#fff"
         stop-opacity="0"
         id="stop13" />
    </linearGradient>
    <filter
       id="filter0_dd_1894_485083"
       width="38.667"
       height="38.667"
       x="0.667"
       y="0.667"
       color-interpolation-filters="sRGB"
       filterUnits="userSpaceOnUse">
      <feFlood
         flood-opacity="0"
         result="BackgroundImageFix"
         id="feFlood13" />
      <feColorMatrix
         in="SourceAlpha"
         result="hardAlpha"
         values="0 0 0 0 0 0 0 0 0 0 0 0 0 0 0 0 0 0 127 0"
         id="feColorMatrix13" />
      <feOffset
         dy="1"
         id="feOffset13" />
      <feGaussianBlur
         stdDeviation="1"
         id="feGaussianBlur13" />
      <feColorMatrix
         values="0 0 0 0 0.0627451 0 0 0 0 0.0941176 0 0 0 0 0.156863 0 0 0 0.06 0"
         id="feColorMatrix14" />
      <feBlend
         in2="BackgroundImageFix"
         result="effect1_dropShadow_1894_485083"
         id="feBlend14"
         mode="normal" />
      <feColorMatrix
         in="SourceAlpha"
         result="hardAlpha"
         values="0 0 0 0 0 0 0 0 0 0 0 0 0 0 0 0 0 0 127 0"
         id="feColorMatrix15" />
      <feOffset
         dy="1"
         id="feOffset15" />
      <feGaussianBlur
         stdDeviation="1.5"
         id="feGaussianBlur15" />
      <feColorMatrix
         values="0 0 0 0 0.0627451 0 0 0 0 0.0941176 0 0 0 0 0.156863 0 0 0 0.1 0"
         id="feColorMatrix16" />
      <feBlend
         in2="effect1_dropShadow_1894_485083"
         result="effect2_dropShadow_1894_485083"
         id="feBlend16"
         mode="normal" />
      <feBlend
         in="SourceGraphic"
         in2="effect2_dropShadow_1894_485083"
         result="shape"
         id="feBlend17"
         mode="normal" />
    </filter>
  </defs>
</svg>
